<svg width="38" height="39" viewBox="0 0 38 39" fill="none" xmlns="http://www.w3.org/2000/svg">
<g id="Logo">
<mask id="mask0_0_787" style="mask-type:luminance" maskUnits="userSpaceOnUse" x="0" y="0" width="38" height="39">
<path id="Clip 2" fill-rule="evenodd" clip-rule="evenodd" d="M0 0.708008H37.541V38.2497H0V0.708008Z" fill="white"/>
</mask>
<g mask="url(#mask0_0_787)">
<path id="Fill 1" fill-rule="evenodd" clip-rule="evenodd" d="M32.1741 24.4134C32.1741 26.7594 30.344 28.3821 28.0252 28.3821C25.6801 28.3821 23.8509 26.7594 23.8509 24.4134V14.5177C23.8509 12.1734 25.6801 10.5754 28.0252 10.5754C30.344 10.5754 32.1741 12.1734 32.1741 14.5177V24.4134ZM22.5155 28.0463H20.6081L20.2741 26.8878C19.8091 27.8406 18.8299 28.3821 17.8516 28.3821C15.6093 28.3821 14.1915 26.7594 14.1915 24.5163V14.4149C14.1915 12.38 15.8932 10.5754 18.3403 10.5754C20.7883 10.5754 22.3863 12.38 22.3863 14.4149V17.2496H19.2685V14.3639C19.2685 13.8743 18.9591 13.5649 18.3922 13.5649C17.8516 13.5649 17.5413 13.8743 17.5413 14.3639V24.6446C17.5413 25.1351 17.8771 25.4946 18.4177 25.4946C18.9846 25.4946 19.3195 25.1351 19.3195 24.6446V21.8371H18.4432V19.5166H22.5155V28.0463ZM13.0814 13.7969H9.53688V17.8939H11.9594V20.5731H9.53688V25.0322H13.0814V28.0463H6.23803V10.8848H13.0814V13.7969ZM18.7704 0.707764C8.40298 0.707764 -0.00012207 9.11256 -0.00012207 19.4792C-0.00012207 29.8458 8.40298 38.2497 18.7704 38.2497C29.1379 38.2497 37.541 29.8458 37.541 19.4792C37.541 9.11256 29.1379 0.707764 18.7704 0.707764Z" fill="#12110F"/>
<path id="Fill 4" fill-rule="evenodd" clip-rule="evenodd" d="M28.025 13.5652C27.5872 13.5652 27.2268 13.8482 27.2268 14.3123V24.6194C27.2268 25.0835 27.5872 25.3666 28.025 25.3666C28.4636 25.3666 28.7985 25.0835 28.7985 24.6194V14.3123C28.7985 13.8482 28.4636 13.5652 28.025 13.5652Z" fill="#12110F"/>
</g>
</g>
</svg>
